<svg version="1.1" xmlns="http://www.w3.org/2000/svg" xmlns:xlink="http://www.w3.org/1999/xlink" width="284.3525390625" height="353"><defs/><g><g transform="translate(-342,-30) scale(1,1)"><path fill="#C0C0C0" stroke="none" d="M 417 111 L 465.24267578125 111 Q 475.24267578125 111 475.24267578125 121 L 475.24267578125 140 Q 475.24267578125 150 465.24267578125 150 L 417 150 Q 407 150 407 140 L 407 121 Q 407 111 417 111 Z" opacity="0.2"/></g><g transform="translate(-342,-30) scale(1,1)"><path fill="#ffffff" stroke="none" d="M 410 104 L 458.24267578125 104 Q 468.24267578125 104 468.24267578125 114 L 468.24267578125 133 Q 468.24267578125 143 458.24267578125 143 L 410 143 Q 400 143 400 133 L 400 114 Q 400 104 410 104 Z"/></g><g transform="translate(-342,-30) scale(1,1)"><path fill="none" stroke="#000000" d="M 410 104 L 458.24267578125 104 Q 468.24267578125 104 468.24267578125 114 L 468.24267578125 133 Q 468.24267578125 143 458.24267578125 143 L 410 143 Q 400 143 400 133 L 400 114 Q 400 104 410 104 Z" stroke-miterlimit="10"/></g><g transform="translate(-342,-30) scale(1,1)"><g><path fill="none" stroke="none"/><text fill="#000000" stroke="none" font-family="Arial" font-size="13px" font-style="normal" font-weight="bold" text-decoration="none" x="405.2109375" y="123.5">ManeIdea</text></g></g><g transform="translate(-342,-30) scale(1,1)"><path fill="#C0C0C0" stroke="none" d="M 431 56.5 C 431 51.2532944 435.2532944 47 440.5 47 C 445.7467056 47 450 51.2532944 450 56.5 C 450 61.7467056 445.7467056 66 440.5 66 C 435.2532944 66 431 61.7467056 431 56.5 Z" opacity="0.2"/></g><g transform="translate(-342,-30) scale(1,1)"><path fill="#000000" stroke="none" d="M 424 49.5 C 424 44.2532944 428.2532944 40 433.5 40 C 438.7467056 40 443 44.2532944 443 49.5 C 443 54.7467056 438.7467056 59 433.5 59 C 428.2532944 59 424 54.7467056 424 49.5 Z"/></g><g transform="translate(-342,-30) scale(1,1)"><path fill="none" stroke="#000000" d="M 433 60 L 434 103" stroke-miterlimit="10"/></g><g transform="translate(-342,-30) scale(1,1)"><path fill="none" stroke="#000000" d="M 429.55534271416747 92.93794148240552 L 434 103 L 437.97210250362457 92.7422028826507" stroke-miterlimit="10"/></g><g transform="translate(-342,-30) scale(1,1)"><g><path fill="none" stroke="none"/><text fill="#000000" stroke="none" font-family="Arial" font-size="13px" font-style="normal" font-weight="normal" text-decoration="none" x="454.5" y="86.5">Trs_Start_ManeIdea</text></g></g><g transform="translate(-342,-30) scale(1,1)"><path fill="#C0C0C0" stroke="none" d="M 417 220 L 500.123046875 220 Q 510.123046875 220 510.123046875 230 L 510.123046875 249 Q 510.123046875 259 500.123046875 259 L 417 259 Q 407 259 407 249 L 407 230 Q 407 220 417 220 Z" opacity="0.2"/></g><g transform="translate(-342,-30) scale(1,1)"><path fill="#ffffff" stroke="none" d="M 410 213 L 493.123046875 213 Q 503.123046875 213 503.123046875 223 L 503.123046875 242 Q 503.123046875 252 493.123046875 252 L 410 252 Q 400 252 400 242 L 400 223 Q 400 213 410 213 Z"/></g><g transform="translate(-342,-30) scale(1,1)"><path fill="none" stroke="#000000" d="M 410 213 L 493.123046875 213 Q 503.123046875 213 503.123046875 223 L 503.123046875 242 Q 503.123046875 252 493.123046875 252 L 410 252 Q 400 252 400 242 L 400 223 Q 400 213 410 213 Z" stroke-miterlimit="10"/></g><g transform="translate(-342,-30) scale(1,1)"><g><path fill="none" stroke="none"/><text fill="#000000" stroke="none" font-family="Arial" font-size="13px" font-style="normal" font-weight="bold" text-decoration="none" x="408.083251953125" y="232.5">Wating_for_pin</text></g></g><g transform="translate(-342,-30) scale(1,1)"><path fill="none" stroke="#000000" d="M 437 144 L 448 212" stroke-miterlimit="10"/></g><g transform="translate(-342,-30) scale(1,1)"><path fill="none" stroke="#000000" d="M 442.22163550777407 202.63995172047802 L 448 212 L 450.53263289406294 201.295525672696" stroke-miterlimit="10"/></g><g transform="translate(-342,-30) scale(1,1)"><g><path fill="none" stroke="none"/><text fill="#000000" stroke="none" font-family="Arial" font-size="13px" font-style="normal" font-weight="normal" text-decoration="none" x="487.5" y="181.5">Card_inserted, Event1</text></g></g><g transform="translate(-342,-30) scale(1,1)"><path fill="#C0C0C0" stroke="none" d="M 362 375 L 425 375 Q 428 375 428 378 L 428 377 Q 428 380 425 380 L 362 380 Q 359 380 359 377 L 359 378 Q 359 375 362 375 Z" opacity="0.2"/></g><g transform="translate(-342,-30) scale(1,1)"><path fill="#000000" stroke="none" d="M 355 368 L 418 368 Q 421 368 421 371 L 421 371 Q 421 374 418 374 L 355 374 Q 352 374 352 371 L 352 371 Q 352 368 355 368 Z"/></g><g transform="translate(-342,-30) scale(1,1)"><path fill="#C0C0C0" stroke="none" d="M 375 304.5 L 386.5 295 L 397 304.5 L 386.5 313 L 375 304.5" opacity="0.2"/></g><g transform="translate(-342,-30) scale(1,1)"><path fill="#ffffff" stroke="none" d="M 368 297 L 379 288 L 390 297 L 379 306 L 368 297"/></g><g transform="translate(-342,-30) scale(1,1)"><path fill="none" stroke="#000000" d="M 368 297 L 379 288 L 390 297 L 379 306 L 368 297 L 368 297" stroke-miterlimit="10"/></g></g></svg>