<svg version="1.1" xmlns="http://www.w3.org/2000/svg" xmlns:xlink="http://www.w3.org/1999/xlink" width="709" height="571"><defs/><g><g transform="translate(-142,-22) scale(1,1)"><rect fill="#C0C0C0" stroke="none" x="159" y="39" width="455" height="551" opacity="0.2"/></g><g transform="translate(-142,-22) scale(1,1)"><rect fill="#ffffff" stroke="none" x="152" y="32" width="455" height="551"/></g><g transform="translate(-142,-22) scale(1,1)"><path fill="none" stroke="#000000" d="M 152 32 L 607 32 L 607 583 L 152 583 L 152 32 Z Z" stroke-miterlimit="10"/></g><g transform="translate(-142,-22) scale(1,1)"><g><path fill="none" stroke="none"/><text fill="#000000" stroke="none" font-family="Arial" font-size="13px" font-style="normal" font-weight="bold" text-decoration="none" x="332.308349609375" y="51.5">ATM Withdrawal</text></g></g><g transform="translate(-142,-22) scale(1,1)"><path fill="#C0C0C0" stroke="none" d="M 255 138.5 C 255 127.7304464 297.7568016 119 350.5 119 C 403.2431984 119 446 127.7304464 446 138.5 C 446 149.2695536 403.2431984 158 350.5 158 C 297.7568016 158 255 149.2695536 255 138.5 Z" opacity="0.2"/></g><g transform="translate(-142,-22) scale(1,1)"><path fill="#ffffff" stroke="none" d="M 248 131.5 C 248 120.7304464 290.7568016 112 343.5 112 C 396.2431984 112 439 120.7304464 439 131.5 C 439 142.2695536 396.2431984 151 343.5 151 C 290.7568016 151 248 142.2695536 248 131.5 Z"/></g><g transform="translate(-142,-22) scale(1,1)"><path fill="none" stroke="#000000" d="M 248 131.5 C 248 120.7304464 290.7568016 112 343.5 112 C 396.2431984 112 439 120.7304464 439 131.5 C 439 142.2695536 396.2431984 151 343.5 151 C 290.7568016 151 248 142.2695536 248 131.5 Z" stroke-miterlimit="10"/></g><g transform="translate(-142,-22) scale(1,1)"><g><path fill="none" stroke="none"/><text fill="#000000" stroke="none" font-family="Arial" font-size="13px" font-style="normal" font-weight="bold" text-decoration="none" x="290.392333984375" y="138.5">Accept Card &amp; Pin</text></g></g><g transform="translate(-142,-22) scale(1,1)"><path fill="#C0C0C0" stroke="none" d="M 191 232 C 191 222.6111584 231.5182256 215 281.5 215 C 331.4817744 215 372 222.6111584 372 232 C 372 241.3888416 331.4817744 249 281.5 249 C 231.5182256 249 191 241.3888416 191 232 Z" opacity="0.2"/></g><g transform="translate(-142,-22) scale(1,1)"><path fill="#ffffff" stroke="none" d="M 184 225 C 184 215.6111584 224.5182256 208 274.5 208 C 324.4817744 208 365 215.6111584 365 225 C 365 234.3888416 324.4817744 242 274.5 242 C 224.5182256 242 184 234.3888416 184 225 Z"/></g><g transform="translate(-142,-22) scale(1,1)"><path fill="none" stroke="#000000" d="M 184 225 C 184 215.6111584 224.5182256 208 274.5 208 C 324.4817744 208 365 215.6111584 365 225 C 365 234.3888416 324.4817744 242 274.5 242 C 224.5182256 242 184 234.3888416 184 225 Z" stroke-miterlimit="10"/></g><g transform="translate(-142,-22) scale(1,1)"><g><path fill="none" stroke="none"/><text fill="#000000" stroke="none" font-family="Arial" font-size="13px" font-style="normal" font-weight="bold" text-decoration="none" x="218.256591796875" y="232">Validate Card &amp; Pin</text></g></g><g transform="translate(-142,-22) scale(1,1)"><path fill="none" stroke="#000000" d="M 328 152 L 287 207" stroke-miterlimit="10" stroke-dasharray="3"/></g><g transform="translate(-142,-22) scale(1,1)"><path fill="none" stroke="#000000" d="M 289.6989126199474 196.33623562385736 L 287 207 L 296.4488395187407 201.36799931204877" stroke-miterlimit="10"/></g><g transform="translate(-142,-22) scale(1,1)"><g><path fill="none" stroke="none"/><text fill="#000000" stroke="none" font-family="Arial" font-size="13px" font-style="normal" font-weight="normal" text-decoration="none" x="303.5" y="202.5">«include»</text></g></g><g transform="translate(-142,-22) scale(1,1)"><path fill="#C0C0C0" stroke="none" d="M 303 304 C 303 294.6111584 364.3369824 287 440 287 C 515.6630176 287 577 294.6111584 577 304 C 577 313.3888416 515.6630176 321 440 321 C 364.3369824 321 303 313.3888416 303 304 Z" opacity="0.2"/></g><g transform="translate(-142,-22) scale(1,1)"><path fill="#ffffff" stroke="none" d="M 296 297 C 296 287.6111584 357.3369824 280 433 280 C 508.6630176 280 570 287.6111584 570 297 C 570 306.3888416 508.6630176 314 433 314 C 357.3369824 314 296 306.3888416 296 297 Z"/></g><g transform="translate(-142,-22) scale(1,1)"><path fill="none" stroke="#000000" d="M 296 297 C 296 287.6111584 357.3369824 280 433 280 C 508.6630176 280 570 287.6111584 570 297 C 570 306.3888416 508.6630176 314 433 314 C 357.3369824 314 296 306.3888416 296 297 Z" stroke-miterlimit="10"/></g><g transform="translate(-142,-22) scale(1,1)"><g><path fill="none" stroke="none"/><text fill="#000000" stroke="none" font-family="Arial" font-size="13px" font-style="normal" font-weight="bold" text-decoration="none" x="351.3564453125" y="304">Accept Amount to Withdrawl</text></g></g><g transform="translate(-142,-22) scale(1,1)"><path fill="#ffffff" stroke="none" d="M 748.4093503196023 185.68 C 748.4093503196023 180.886167936 752.2951926445477 177 757.088623046875 177 C 761.8820534492023 177 765.7678957741477 180.886167936 765.7678957741477 185.68 C 765.7678957741477 190.47383206400002 761.8820534492023 194.36 757.088623046875 194.36 C 752.2951926445477 194.36 748.4093503196023 190.47383206400002 748.4093503196023 185.68 Z"/></g><g transform="translate(-142,-22) scale(1,1)"><path fill="none" stroke="#000000" d="M 748.4093503196023 185.68 C 748.4093503196023 180.886167936 752.2951926445477 177 757.088623046875 177 C 761.8820534492023 177 765.7678957741477 180.886167936 765.7678957741477 185.68 C 765.7678957741477 190.47383206400002 761.8820534492023 194.36 757.088623046875 194.36 C 752.2951926445477 194.36 748.4093503196023 190.47383206400002 748.4093503196023 185.68 Z" stroke-miterlimit="10"/></g><g transform="translate(-142,-22) scale(1,1)"><path fill="none" stroke="#000000" d="M 757.088623046875 194.36 L 757.088623046875 211.64" stroke-miterlimit="10"/></g><g transform="translate(-142,-22) scale(1,1)"><path fill="none" stroke="#000000" d="M 747.8988048650568 200.84 L 766.2784412286932 200.84" stroke-miterlimit="10"/></g><g transform="translate(-142,-22) scale(1,1)"><path fill="none" stroke="#000000" d="M 757.088623046875 211.64 L 744.3249866832386 229" stroke-miterlimit="10"/></g><g transform="translate(-142,-22) scale(1,1)"><path fill="none" stroke="#000000" d="M 757.088623046875 211.64 L 769.8522594105114 229" stroke-miterlimit="10"/></g><g transform="translate(-142,-22) scale(1,1)"><g><path fill="none" stroke="none"/><text fill="#000000" stroke="none" font-family="Arial" font-size="13px" font-style="normal" font-weight="bold" text-decoration="none" x="738.302734375" y="249.5">Actor1</text></g></g><g transform="translate(-142,-22) scale(1,1)"><path fill="#ffffff" stroke="none" d="M 656.4093503196023 302.68 C 656.4093503196023 297.886167936 660.2951926445477 294 665.088623046875 294 C 669.8820534492023 294 673.7678957741477 297.886167936 673.7678957741477 302.68 C 673.7678957741477 307.473832064 669.8820534492023 311.36 665.088623046875 311.36 C 660.2951926445477 311.36 656.4093503196023 307.473832064 656.4093503196023 302.68 Z"/></g><g transform="translate(-142,-22) scale(1,1)"><path fill="none" stroke="#000000" d="M 656.4093503196023 302.68 C 656.4093503196023 297.886167936 660.2951926445477 294 665.088623046875 294 C 669.8820534492023 294 673.7678957741477 297.886167936 673.7678957741477 302.68 C 673.7678957741477 307.473832064 669.8820534492023 311.36 665.088623046875 311.36 C 660.2951926445477 311.36 656.4093503196023 307.473832064 656.4093503196023 302.68 Z" stroke-miterlimit="10"/></g><g transform="translate(-142,-22) scale(1,1)"><path fill="none" stroke="#000000" d="M 665.088623046875 311.36 L 665.088623046875 328.64" stroke-miterlimit="10"/></g><g transform="translate(-142,-22) scale(1,1)"><path fill="none" stroke="#000000" d="M 655.8988048650568 317.84 L 674.2784412286932 317.84" stroke-miterlimit="10"/></g><g transform="translate(-142,-22) scale(1,1)"><path fill="none" stroke="#000000" d="M 665.088623046875 328.64 L 652.3249866832386 346" stroke-miterlimit="10"/></g><g transform="translate(-142,-22) scale(1,1)"><path fill="none" stroke="#000000" d="M 665.088623046875 328.64 L 677.8522594105114 346" stroke-miterlimit="10"/></g><g transform="translate(-142,-22) scale(1,1)"><g><path fill="none" stroke="none"/><text fill="#000000" stroke="none" font-family="Arial" font-size="13px" font-style="normal" font-weight="bold" text-decoration="none" x="646.302734375" y="366.5">Actor2</text></g></g><g transform="translate(-142,-22) scale(1,1)"><path fill="none" stroke="#000000" d="M 691 299 L 725 256" stroke-miterlimit="10"/></g><g transform="translate(-142,-22) scale(1,1)"><path fill="#FFFFFF" stroke="none" d="M 718.997517570319 277.16530662856957 L 725 256 L 705.7894721270653 266.72173581297363"/></g><g transform="translate(-142,-22) scale(1,1)"><path fill="none" stroke="#000000" d="M 718.997517570319 277.16530662856957 L 725 256 L 705.7894721270653 266.72173581297363 L 718.997517570319 277.16530662856957" stroke-miterlimit="10"/></g><g transform="translate(-142,-22) scale(1,1)"><path fill="#ffffff" stroke="none" d="M 656.4093503196023 53.68 C 656.4093503196023 48.886167936 660.2951926445477 45 665.088623046875 45 C 669.8820534492023 45 673.7678957741477 48.886167936 673.7678957741477 53.68 C 673.7678957741477 58.473832064 669.8820534492023 62.36 665.088623046875 62.36 C 660.2951926445477 62.36 656.4093503196023 58.473832064 656.4093503196023 53.68 Z"/></g><g transform="translate(-142,-22) scale(1,1)"><path fill="none" stroke="#000000" d="M 656.4093503196023 53.68 C 656.4093503196023 48.886167936 660.2951926445477 45 665.088623046875 45 C 669.8820534492023 45 673.7678957741477 48.886167936 673.7678957741477 53.68 C 673.7678957741477 58.473832064 669.8820534492023 62.36 665.088623046875 62.36 C 660.2951926445477 62.36 656.4093503196023 58.473832064 656.4093503196023 53.68 Z" stroke-miterlimit="10"/></g><g transform="translate(-142,-22) scale(1,1)"><path fill="none" stroke="#000000" d="M 665.088623046875 62.36 L 665.088623046875 79.64" stroke-miterlimit="10"/></g><g transform="translate(-142,-22) scale(1,1)"><path fill="none" stroke="#000000" d="M 655.8988048650568 68.84 L 674.2784412286932 68.84" stroke-miterlimit="10"/></g><g transform="translate(-142,-22) scale(1,1)"><path fill="none" stroke="#000000" d="M 665.088623046875 79.64 L 652.3249866832386 97" stroke-miterlimit="10"/></g><g transform="translate(-142,-22) scale(1,1)"><path fill="none" stroke="#000000" d="M 665.088623046875 79.64 L 677.8522594105114 97" stroke-miterlimit="10"/></g><g transform="translate(-142,-22) scale(1,1)"><g><path fill="none" stroke="none"/><text fill="#000000" stroke="none" font-family="Arial" font-size="13px" font-style="normal" font-weight="bold" text-decoration="none" x="646.302734375" y="117.5">Actor4</text></g></g><g transform="translate(-142,-22) scale(1,1)"><path fill="none" stroke="#000000" d="M 729 175 L 691 121" stroke-miterlimit="10"/></g><g transform="translate(-142,-22) scale(1,1)"><path fill="#FFFFFF" stroke="none" d="M 709.5822460253793 132.77710204813877 L 691 121 L 695.8119634532576 142.46730089518738"/></g><g transform="translate(-142,-22) scale(1,1)"><path fill="none" stroke="#000000" d="M 709.5822460253793 132.77710204813877 L 691 121 L 695.8119634532576 142.46730089518738 L 709.5822460253793 132.77710204813877" stroke-miterlimit="10"/></g><g transform="translate(-142,-22) scale(1,1)"><path fill="none" stroke="#000000" d="M 757 176 L 757 155 L 840 155 L 840 215 L 810 215" stroke-miterlimit="10"/></g><g transform="translate(-142,-22) scale(1,1)"><path fill="none" stroke="#000000" d="M 703 216 L 366 223" stroke-miterlimit="10"/></g><g transform="translate(-142,-22) scale(1,1)"><g><path fill="none" stroke="none"/><text fill="#000000" stroke="none" font-family="Arial" font-size="13px" font-style="normal" font-weight="normal" text-decoration="none" x="477.5" y="239.5">+Ass_Act1_VdC&amp;P</text></g></g></g></svg>