<svg version="1.1" xmlns="http://www.w3.org/2000/svg" xmlns:xlink="http://www.w3.org/1999/xlink" width="724" height="604"><defs/><g><g transform="translate(-54,-86) scale(1,1)"><path fill="none" stroke="#000000" d="M 170 144 L 191 146" stroke-miterlimit="10"/></g><g transform="translate(-54,-86) scale(1,1)"><path fill="none" stroke="#000000" d="M 180.48400263094146 149.2270418859931 L 191 146 L 181.2822037486401 140.84593015015756" stroke-miterlimit="10"/></g><g transform="translate(-54,-86) scale(1,1)"><g><path fill="none" stroke="none"/><text fill="#000000" stroke="none" font-family="Arial" font-size="13px" font-style="normal" font-weight="normal" text-decoration="none" x="149.5" y="136.5">+Log_Adm</text></g></g><g transform="translate(-54,-86) scale(1,1)"><path fill="none" stroke="#000000" d="M 378 148 L 447 144" stroke-miterlimit="10"/></g><g transform="translate(-54,-86) scale(1,1)"><path fill="#000000" stroke="none" d="M 387.90202024305125 143.20938468396776 L 378 148 L 388.38926223733057 151.61430908528547 L 399.963125890695 146.72677531068436"/></g><g transform="translate(-54,-86) scale(1,1)"><path fill="none" stroke="#000000" d="M 387.90202024305125 143.20938468396776 L 378 148 L 388.38926223733057 151.61430908528547 L 399.963125890695 146.72677531068436 L 387.90202024305125 143.20938468396776" stroke-miterlimit="10"/></g><g transform="translate(-54,-86) scale(1,1)"><rect fill="#C0C0C0" stroke="none" x="87" y="239" width="275.2" height="15" opacity="0.2"/></g><g transform="translate(-54,-86) scale(1,1)"><rect fill="#C0C0C0" stroke="none" x="87" y="253" width="688" height="434" opacity="0.2"/></g><g transform="translate(-54,-86) scale(1,1)"><rect fill="#ffffff" stroke="none" x="80" y="247" width="688" height="433"/></g><g transform="translate(-54,-86) scale(1,1)"><path fill="none" stroke="#000000" d="M 80 247 L 768 247 L 768 680 L 80 680 L 80 247 Z Z" stroke-miterlimit="10"/></g><g transform="translate(-54,-86) scale(1,1)"><rect fill="#ffffff" stroke="none" x="80" y="232" width="275.2" height="15"/></g><g transform="translate(-54,-86) scale(1,1)"><path fill="none" stroke="#000000" d="M 80 232 L 355.2 232 L 355.2 247 L 80 247 L 80 232 Z Z" stroke-miterlimit="10"/></g><g transform="translate(-54,-86) scale(1,1)"><rect fill="#ffffff" stroke="none" x="80" y="246" width="688" height="434"/></g><g transform="translate(-54,-86) scale(1,1)"><path fill="none" stroke="#000000" d="M 80 246 L 768 246 L 768 680 L 80 680 L 80 246 Z Z" stroke-miterlimit="10"/></g><g transform="translate(-54,-86) scale(1,1)"><g><path fill="none" stroke="none"/><text fill="#000000" stroke="none" font-family="Arial" font-size="13px" font-style="normal" font-weight="bold" text-decoration="none" x="386.06640625" y="266.5">Hospital_Org</text></g></g><g transform="translate(-54,-86) scale(1,1)"><rect fill="#C0C0C0" stroke="none" x="439" y="303" width="81.236328125" height="57" opacity="0.2"/></g><g transform="translate(-54,-86) scale(1,1)"><rect fill="#ffffff" stroke="none" x="432" y="296" width="81.236328125" height="57"/></g><g transform="translate(-54,-86) scale(1,1)"><path fill="none" stroke="#000000" d="M 432 296 L 513.236328125 296 L 513.236328125 353 L 432 353 L 432 296 Z Z" stroke-miterlimit="10"/></g><g transform="translate(-54,-86) scale(1,1)"><path fill="none" stroke="#000000" d="M 432 321 L 513.236328125 321" stroke-miterlimit="10"/></g><g transform="translate(-54,-86) scale(1,1)"><path fill="none" stroke="#000000" d="M 432 344 L 513.236328125 344" stroke-miterlimit="10"/></g><g transform="translate(-54,-86) scale(1,1)"><g><path fill="none" stroke="none"/><text fill="#000000" stroke="none" font-family="Arial" font-size="13px" font-style="normal" font-weight="bold" text-decoration="none" x="438.658203125" y="315.5">Department</text></g></g><g transform="translate(-54,-86) scale(1,1)"><g><path fill="none" stroke="none"/><text fill="#000000" stroke="none" font-family="Arial" font-size="13px" font-style="normal" font-weight="normal" text-decoration="none" x="437" y="338.5">+dept_id</text></g></g><g transform="translate(-54,-86) scale(1,1)"><rect fill="#C0C0C0" stroke="none" x="71" y="111" width="104.7353515625" height="72" opacity="0.2"/></g><g transform="translate(-54,-86) scale(1,1)"><rect fill="#ffffff" stroke="none" x="64" y="104" width="104.7353515625" height="72"/></g><g transform="translate(-54,-86) scale(1,1)"><path fill="none" stroke="#000000" d="M 64 104 L 168.7353515625 104 L 168.7353515625 176 L 64 176 L 64 104 Z Z" stroke-miterlimit="10"/></g><g transform="translate(-54,-86) scale(1,1)"><path fill="none" stroke="#000000" d="M 64 129 L 168.7353515625 129" stroke-miterlimit="10"/></g><g transform="translate(-54,-86) scale(1,1)"><path fill="none" stroke="#000000" d="M 64 167 L 168.7353515625 167" stroke-miterlimit="10"/></g><g transform="translate(-54,-86) scale(1,1)"><g><path fill="none" stroke="none"/><text fill="#000000" stroke="none" font-family="Arial" font-size="13px" font-style="normal" font-weight="bold" text-decoration="none" x="100.463623046875" y="123.5">Login</text></g></g><g transform="translate(-54,-86) scale(1,1)"><g><path fill="none" stroke="none"/><text fill="#000000" stroke="none" font-family="Arial" font-size="13px" font-style="normal" font-weight="normal" text-decoration="none" x="69" y="146.5">+Username: text</text></g></g><g transform="translate(-54,-86) scale(1,1)"><g><path fill="none" stroke="none"/><text fill="#000000" stroke="none" font-family="Arial" font-size="13px" font-style="normal" font-weight="normal" text-decoration="none" x="69" y="161.5">+Password: text</text></g></g><g transform="translate(-54,-86) scale(1,1)"><rect fill="#C0C0C0" stroke="none" x="199" y="103" width="185.2998046875" height="115" opacity="0.2"/></g><g transform="translate(-54,-86) scale(1,1)"><rect fill="#ffffff" stroke="none" x="192" y="96" width="185.2998046875" height="115"/></g><g transform="translate(-54,-86) scale(1,1)"><path fill="none" stroke="#000000" d="M 192 96 L 377.2998046875 96 L 377.2998046875 211 L 192 211 L 192 96 Z Z" stroke-miterlimit="10"/></g><g transform="translate(-54,-86) scale(1,1)"><path fill="none" stroke="#000000" d="M 192 121 L 377.2998046875 121" stroke-miterlimit="10"/></g><g transform="translate(-54,-86) scale(1,1)"><path fill="none" stroke="#000000" d="M 192 159 L 377.2998046875 159" stroke-miterlimit="10"/></g><g transform="translate(-54,-86) scale(1,1)"><g><path fill="none" stroke="none"/><text fill="#000000" stroke="none" font-family="Arial" font-size="13px" font-style="normal" font-weight="bold" text-decoration="none" x="266.225830078125" y="115.5">Admin</text></g></g><g transform="translate(-54,-86) scale(1,1)"><g><path fill="none" stroke="none"/><text fill="#000000" stroke="none" font-family="Arial" font-size="13px" font-style="normal" font-weight="normal" text-decoration="none" x="197" y="138.5">+Client ID: AutoNumber</text></g></g><g transform="translate(-54,-86) scale(1,1)"><g><path fill="none" stroke="none"/><text fill="#000000" stroke="none" font-family="Arial" font-size="13px" font-style="normal" font-weight="normal" text-decoration="none" x="197" y="153.5">«st»+Client Name: text = roma</text></g></g><g transform="translate(-54,-86) scale(1,1)"><g><path fill="none" stroke="none"/><text fill="#000000" stroke="none" font-family="Arial" font-size="13px" font-style="normal" font-weight="normal" text-decoration="none" x="197" y="176.5">+SearchClient()</text></g></g><g transform="translate(-54,-86) scale(1,1)"><g><path fill="none" stroke="none"/><text fill="#000000" stroke="none" font-family="Arial" font-size="13px" font-style="normal" font-weight="normal" text-decoration="none" x="197" y="191.5">+DeleteClient()</text></g></g><g transform="translate(-54,-86) scale(1,1)"><g><path fill="none" stroke="none"/><text fill="#000000" stroke="none" font-family="Arial" font-size="13px" font-style="normal" font-weight="normal" text-decoration="none" x="197" y="206.5">+UpdateClient()</text></g></g><g transform="translate(-54,-86) scale(1,1)"><rect fill="#C0C0C0" stroke="none" x="455" y="127" width="50.919921875" height="44" opacity="0.2"/></g><g transform="translate(-54,-86) scale(1,1)"><rect fill="#ffffff" stroke="none" x="448" y="120" width="50.919921875" height="44"/></g><g transform="translate(-54,-86) scale(1,1)"><path fill="none" stroke="#000000" d="M 448 120 L 498.919921875 120 L 498.919921875 164 L 448 164 L 448 120 Z Z" stroke-miterlimit="10"/></g><g transform="translate(-54,-86) scale(1,1)"><path fill="none" stroke="#000000" d="M 448 145 L 498.919921875 145" stroke-miterlimit="10"/></g><g transform="translate(-54,-86) scale(1,1)"><path fill="none" stroke="#000000" d="M 448 155 L 498.919921875 155" stroke-miterlimit="10"/></g><g transform="translate(-54,-86) scale(1,1)"><g><path fill="none" stroke="none"/><text fill="#000000" stroke="none" font-family="Arial" font-size="13px" font-style="normal" font-weight="bold" text-decoration="none" x="453.591796875" y="139.5">Class1</text></g></g><g transform="translate(-54,-86) scale(1,1)"><rect fill="#C0C0C0" stroke="none" x="207" y="303" width="98.958984375" height="115" opacity="0.2"/></g><g transform="translate(-54,-86) scale(1,1)"><rect fill="#ffffff" stroke="none" x="200" y="296" width="98.958984375" height="115"/></g><g transform="translate(-54,-86) scale(1,1)"><path fill="none" stroke="#000000" d="M 200 296 L 298.958984375 296 L 298.958984375 411 L 200 411 L 200 296 Z Z" stroke-miterlimit="10"/></g><g transform="translate(-54,-86) scale(1,1)"><path fill="none" stroke="#000000" d="M 200 321 L 298.958984375 321" stroke-miterlimit="10"/></g><g transform="translate(-54,-86) scale(1,1)"><path fill="none" stroke="#000000" d="M 200 374 L 298.958984375 374" stroke-miterlimit="10"/></g><g transform="translate(-54,-86) scale(1,1)"><g><path fill="none" stroke="none"/><text fill="#000000" stroke="none" font-family="Arial" font-size="13px" font-style="normal" font-weight="bold" text-decoration="none" x="225.996337890625" y="315.5">Hospital</text></g></g><g transform="translate(-54,-86) scale(1,1)"><g><path fill="none" stroke="none"/><text fill="#000000" stroke="none" font-family="Arial" font-size="13px" font-style="normal" font-weight="normal" text-decoration="none" x="205" y="338.5">+name</text></g></g><g transform="translate(-54,-86) scale(1,1)"><g><path fill="none" stroke="none"/><text fill="#000000" stroke="none" font-family="Arial" font-size="13px" font-style="normal" font-weight="normal" text-decoration="none" x="205" y="353.5">+phone</text></g></g><g transform="translate(-54,-86) scale(1,1)"><g><path fill="none" stroke="none"/><text fill="#000000" stroke="none" font-family="Arial" font-size="13px" font-style="normal" font-weight="normal" text-decoration="none" x="205" y="368.5">+hosp_id</text></g></g><g transform="translate(-54,-86) scale(1,1)"><g><path fill="none" stroke="none"/><text fill="#000000" stroke="none" font-family="Arial" font-size="13px" font-style="normal" font-weight="normal" text-decoration="none" x="205" y="391.5">+Add_hosp()</text></g></g><g transform="translate(-54,-86) scale(1,1)"><g><path fill="none" stroke="none"/><text fill="#000000" stroke="none" font-family="Arial" font-size="13px" font-style="normal" font-weight="normal" text-decoration="none" x="205" y="406.5">+Modify_hosp()</text></g></g><g transform="translate(-54,-86) scale(1,1)"><path fill="none" stroke="#000000" d="M 431 329 L 300 346" stroke-miterlimit="10"/></g><g transform="translate(-54,-86) scale(1,1)"><path fill="#FFFFFF" stroke="none" d="M 309.53643757568864 340.51763204764643 L 300 346 L 310.61989923420066 348.8666601220626 L 321.8170617494907 343.1687782462493"/></g><g transform="translate(-54,-86) scale(1,1)"><path fill="none" stroke="#000000" d="M 309.53643757568864 340.51763204764643 L 300 346 L 310.61989923420066 348.8666601220626 L 321.8170617494907 343.1687782462493 L 309.53643757568864 340.51763204764643" stroke-miterlimit="10"/></g><g transform="translate(-54,-86) scale(1,1)"><g><path fill="none" stroke="none"/><text fill="#000000" stroke="none" font-family="Arial" font-size="13px" font-style="normal" font-weight="normal" text-decoration="none" x="319.5" y="357.5">+Agg_Hosp_Det</text></g></g><g transform="translate(-54,-86) scale(1,1)"><rect fill="#C0C0C0" stroke="none" x="583" y="311" width="83.81982421875" height="72" opacity="0.2"/></g><g transform="translate(-54,-86) scale(1,1)"><rect fill="#ffffff" stroke="none" x="576" y="304" width="83.81982421875" height="72"/></g><g transform="translate(-54,-86) scale(1,1)"><path fill="none" stroke="#000000" d="M 576 304 L 659.81982421875 304 L 659.81982421875 376 L 576 376 L 576 304 Z Z" stroke-miterlimit="10"/></g><g transform="translate(-54,-86) scale(1,1)"><path fill="none" stroke="#000000" d="M 576 329 L 659.81982421875 329" stroke-miterlimit="10"/></g><g transform="translate(-54,-86) scale(1,1)"><path fill="none" stroke="#000000" d="M 576 367 L 659.81982421875 367" stroke-miterlimit="10"/></g><g transform="translate(-54,-86) scale(1,1)"><g><path fill="none" stroke="none"/><text fill="#000000" stroke="none" font-family="Arial" font-size="13px" font-style="italic" font-weight="bold" text-decoration="none" x="605.9921875" y="323.5">Staff</text></g></g><g transform="translate(-54,-86) scale(1,1)"><g><path fill="none" stroke="none"/><text fill="#000000" stroke="none" font-family="Arial" font-size="13px" font-style="normal" font-weight="normal" text-decoration="none" x="581" y="346.5">+staff_id</text></g></g><g transform="translate(-54,-86) scale(1,1)"><g><path fill="none" stroke="none"/><text fill="#000000" stroke="none" font-family="Arial" font-size="13px" font-style="normal" font-weight="normal" text-decoration="none" x="581" y="361.5">+joined_date</text></g></g><g transform="translate(-54,-86) scale(1,1)"><path fill="none" stroke="#000000" d="M 514 329 L 575 335" stroke-miterlimit="10"/></g><g transform="translate(-54,-86) scale(1,1)"><path fill="#FFFFFF" stroke="none" d="M 524.5259301162115 325.8055054877756 L 514 329 L 523.701805295526 334.1841078314117 L 535.8943430392428 331.1535419382862"/></g><g transform="translate(-54,-86) scale(1,1)"><path fill="none" stroke="#000000" d="M 524.5259301162115 325.8055054877756 L 514 329 L 523.701805295526 334.1841078314117 L 535.8943430392428 331.1535419382862 L 524.5259301162115 325.8055054877756" stroke-miterlimit="10"/></g><g transform="translate(-54,-86) scale(1,1)"><rect fill="#C0C0C0" stroke="none" x="575" y="453" width="105.07177734375" height="44" opacity="0.2"/></g><g transform="translate(-54,-86) scale(1,1)"><rect fill="#ffffff" stroke="none" x="568" y="446" width="105.07177734375" height="44"/></g><g transform="translate(-54,-86) scale(1,1)"><path fill="none" stroke="#000000" d="M 568 446 L 673.07177734375 446 L 673.07177734375 490 L 568 490 L 568 446 Z Z" stroke-miterlimit="10"/></g><g transform="translate(-54,-86) scale(1,1)"><path fill="none" stroke="#000000" d="M 568 471 L 673.07177734375 471" stroke-miterlimit="10"/></g><g transform="translate(-54,-86) scale(1,1)"><path fill="none" stroke="#000000" d="M 568 481 L 673.07177734375 481" stroke-miterlimit="10"/></g><g transform="translate(-54,-86) scale(1,1)"><g><path fill="none" stroke="none"/><text fill="#000000" stroke="none" font-family="Arial" font-size="13px" font-style="italic" font-weight="bold" text-decoration="none" x="579.3681640625" y="465.5">Operation_staff</text></g></g><g transform="translate(-54,-86) scale(1,1)"><path fill="none" stroke="#000000" d="M 619 445 L 618 377" stroke-miterlimit="10"/></g><g transform="translate(-54,-86) scale(1,1)"><path fill="#FFFFFF" stroke="none" d="M 626.7169951830236 397.19935630110876 L 618 377 L 609.8807445893692 397.4469482216037"/></g><g transform="translate(-54,-86) scale(1,1)"><path fill="none" stroke="#000000" d="M 626.7169951830236 397.19935630110876 L 618 377 L 609.8807445893692 397.4469482216037 L 626.7169951830236 397.19935630110876" stroke-miterlimit="10"/></g><g transform="translate(-54,-86) scale(1,1)"><path fill="none" stroke="#000000" d="M 412 517 L 567 480" stroke-miterlimit="10"/></g><g transform="translate(-54,-86) scale(1,1)"><path fill="#FFFFFF" stroke="none" d="M 549.1848966918111 492.90821808455985 L 567 480 L 545.2753311026137 476.5303081838678"/></g><g transform="translate(-54,-86) scale(1,1)"><path fill="none" stroke="#000000" d="M 549.1848966918111 492.90821808455985 L 567 480 L 545.2753311026137 476.5303081838678 L 549.1848966918111 492.90821808455985" stroke-miterlimit="10"/></g><g transform="translate(-54,-86) scale(1,1)"><g><path fill="none" stroke="none"/><text fill="#000000" stroke="none" font-family="Arial" font-size="13px" font-style="normal" font-weight="normal" text-decoration="none" x="442.5" y="489.5">+Gen_Doc_Stf</text></g></g><g transform="translate(-54,-86) scale(1,1)"><rect fill="#C0C0C0" stroke="none" x="311" y="495" width="106.89990234375" height="85" opacity="0.2"/></g><g transform="translate(-54,-86) scale(1,1)"><rect fill="#ffffff" stroke="none" x="304" y="488" width="106.89990234375" height="85"/></g><g transform="translate(-54,-86) scale(1,1)"><path fill="none" stroke="#000000" d="M 304 488 L 410.89990234375 488 L 410.89990234375 573 L 304 573 L 304 488 Z Z" stroke-miterlimit="10"/></g><g transform="translate(-54,-86) scale(1,1)"><path fill="none" stroke="#000000" d="M 304 513 L 410.89990234375 513" stroke-miterlimit="10"/></g><g transform="translate(-54,-86) scale(1,1)"><path fill="none" stroke="#000000" d="M 304 536 L 410.89990234375 536" stroke-miterlimit="10"/></g><g transform="translate(-54,-86) scale(1,1)"><g><path fill="none" stroke="none"/><text fill="#000000" stroke="none" font-family="Arial" font-size="13px" font-style="normal" font-weight="bold" text-decoration="none" x="338.305419921875" y="507.5">Doctor</text></g></g><g transform="translate(-54,-86) scale(1,1)"><g><path fill="none" stroke="none"/><text fill="#000000" stroke="none" font-family="Arial" font-size="13px" font-style="normal" font-weight="normal" text-decoration="none" x="309" y="530.5">+doctor_id</text></g></g><g transform="translate(-54,-86) scale(1,1)"><g><path fill="none" stroke="none"/><text fill="#000000" stroke="none" font-family="Arial" font-size="13px" font-style="normal" font-weight="normal" text-decoration="none" x="309" y="553.5">+Add_doctor()</text></g></g><g transform="translate(-54,-86) scale(1,1)"><g><path fill="none" stroke="none"/><text fill="#000000" stroke="none" font-family="Arial" font-size="13px" font-style="normal" font-weight="normal" text-decoration="none" x="309" y="568.5">+Modify_doctor()</text></g></g><g transform="translate(-54,-86) scale(1,1)"><rect fill="#C0C0C0" stroke="none" x="503" y="575" width="230.47607421875" height="70" opacity="0.2"/></g><g transform="translate(-54,-86) scale(1,1)"><rect fill="#ffffff" stroke="none" x="496" y="568" width="230.47607421875" height="70"/></g><g transform="translate(-54,-86) scale(1,1)"><path fill="none" stroke="#000000" d="M 496 568 L 726.47607421875 568 L 726.47607421875 638 L 496 638 L 496 568 Z Z" stroke-miterlimit="10"/></g><g transform="translate(-54,-86) scale(1,1)"><path fill="none" stroke="#000000" d="M 496 593 L 726.47607421875 593" stroke-miterlimit="10"/></g><g transform="translate(-54,-86) scale(1,1)"><path fill="none" stroke="#000000" d="M 496 616 L 726.47607421875 616" stroke-miterlimit="10"/></g><g transform="translate(-54,-86) scale(1,1)"><g><path fill="none" stroke="none"/><text fill="#000000" stroke="none" font-family="Arial" font-size="13px" font-style="normal" font-weight="bold" text-decoration="none" x="593.8994140625" y="587.5">Nurse</text></g></g><g transform="translate(-54,-86) scale(1,1)"><g><path fill="none" stroke="none"/><text fill="#000000" stroke="none" font-family="Arial" font-size="13px" font-style="normal" font-weight="normal" text-decoration="none" x="501" y="610.5">+nurse_id</text></g></g><g transform="translate(-54,-86) scale(1,1)"><g><path fill="none" stroke="none"/><text fill="#000000" stroke="none" font-family="Arial" font-size="13px" font-style="normal" font-weight="normal" text-decoration="none" x="501" y="633.5">+Add_nurse(name: string)</text></g></g><g transform="translate(-54,-86) scale(1,1)"><path fill="none" stroke="#000000" d="M 613 567 L 618 491" stroke-miterlimit="10"/></g><g transform="translate(-54,-86) scale(1,1)"><path fill="#FFFFFF" stroke="none" d="M 625.0665650169009 511.83419446155557 L 618 491 L 608.2648158588211 510.7288162274714"/></g><g transform="translate(-54,-86) scale(1,1)"><path fill="none" stroke="#000000" d="M 625.0665650169009 511.83419446155557 L 618 491 L 608.2648158588211 510.7288162274714 L 625.0665650169009 511.83419446155557" stroke-miterlimit="10"/></g><g transform="translate(-54,-86) scale(1,1)"><g><path fill="none" stroke="none"/><text fill="#000000" stroke="none" font-family="Arial" font-size="13px" font-style="normal" font-weight="normal" text-decoration="none" x="558.5" y="533.5">+Gen_Nur_Stf</text></g></g></g></svg>